<mxfile host="app.diagrams.net" modified="2021-03-08T11:19:33.420Z" agent="5.0 (X11; Linux x86_64) AppleWebKit/537.36 (KHTML, like Gecko) Chrome/87.0.4280.66 Safari/537.36" etag="MUn9VX5zWXYy_wc6jOuB" version="14.4.4" type="github">
  <diagram id="fe9o9t63jJ4nMrAucya3" name="Page-1">
    <mxGraphModel dx="701" dy="805" grid="1" gridSize="10" guides="1" tooltips="1" connect="1" arrows="1" fold="1" page="1" pageScale="1" pageWidth="827" pageHeight="1169" math="0" shadow="0">
      <root>
        <mxCell id="0" />
        <mxCell id="1" parent="0" />
        <mxCell id="1kwHoDAKHIwVnWZ9qKXR-3" style="edgeStyle=orthogonalEdgeStyle;rounded=0;orthogonalLoop=1;jettySize=auto;html=1;exitX=1;exitY=0.5;exitDx=0;exitDy=0;entryX=0;entryY=0.5;entryDx=0;entryDy=0;" edge="1" parent="1" source="1kwHoDAKHIwVnWZ9qKXR-1" target="1kwHoDAKHIwVnWZ9qKXR-2">
          <mxGeometry relative="1" as="geometry" />
        </mxCell>
        <mxCell id="1kwHoDAKHIwVnWZ9qKXR-5" style="edgeStyle=orthogonalEdgeStyle;rounded=0;orthogonalLoop=1;jettySize=auto;html=1;exitX=1;exitY=0.5;exitDx=0;exitDy=0;entryX=0;entryY=0.5;entryDx=0;entryDy=0;" edge="1" parent="1" source="1kwHoDAKHIwVnWZ9qKXR-1" target="1kwHoDAKHIwVnWZ9qKXR-4">
          <mxGeometry relative="1" as="geometry" />
        </mxCell>
        <mxCell id="1kwHoDAKHIwVnWZ9qKXR-7" style="edgeStyle=orthogonalEdgeStyle;rounded=0;orthogonalLoop=1;jettySize=auto;html=1;exitX=1;exitY=0.5;exitDx=0;exitDy=0;entryX=0;entryY=0.5;entryDx=0;entryDy=0;" edge="1" parent="1" source="1kwHoDAKHIwVnWZ9qKXR-1" target="1kwHoDAKHIwVnWZ9qKXR-6">
          <mxGeometry relative="1" as="geometry" />
        </mxCell>
        <mxCell id="1kwHoDAKHIwVnWZ9qKXR-1" value="Start" style="rounded=1;whiteSpace=wrap;html=1;" vertex="1" parent="1">
          <mxGeometry x="20" y="360" width="120" height="60" as="geometry" />
        </mxCell>
        <mxCell id="1kwHoDAKHIwVnWZ9qKXR-9" style="edgeStyle=orthogonalEdgeStyle;rounded=0;orthogonalLoop=1;jettySize=auto;html=1;exitX=1;exitY=0.5;exitDx=0;exitDy=0;entryX=0;entryY=0.5;entryDx=0;entryDy=0;" edge="1" parent="1" source="1kwHoDAKHIwVnWZ9qKXR-2" target="1kwHoDAKHIwVnWZ9qKXR-8">
          <mxGeometry relative="1" as="geometry" />
        </mxCell>
        <mxCell id="1kwHoDAKHIwVnWZ9qKXR-16" style="edgeStyle=orthogonalEdgeStyle;rounded=0;orthogonalLoop=1;jettySize=auto;html=1;exitX=0.5;exitY=0;exitDx=0;exitDy=0;entryX=0;entryY=0.5;entryDx=0;entryDy=0;" edge="1" parent="1" source="1kwHoDAKHIwVnWZ9qKXR-2" target="1kwHoDAKHIwVnWZ9qKXR-15">
          <mxGeometry relative="1" as="geometry" />
        </mxCell>
        <mxCell id="1kwHoDAKHIwVnWZ9qKXR-2" value="Main Problem Research" style="rounded=0;whiteSpace=wrap;html=1;" vertex="1" parent="1">
          <mxGeometry x="220" y="250" width="120" height="60" as="geometry" />
        </mxCell>
        <mxCell id="1kwHoDAKHIwVnWZ9qKXR-10" style="edgeStyle=orthogonalEdgeStyle;rounded=0;orthogonalLoop=1;jettySize=auto;html=1;exitX=1;exitY=0.5;exitDx=0;exitDy=0;" edge="1" parent="1" source="1kwHoDAKHIwVnWZ9qKXR-4" target="1kwHoDAKHIwVnWZ9qKXR-8">
          <mxGeometry relative="1" as="geometry" />
        </mxCell>
        <mxCell id="1kwHoDAKHIwVnWZ9qKXR-14" style="edgeStyle=orthogonalEdgeStyle;rounded=0;orthogonalLoop=1;jettySize=auto;html=1;exitX=1;exitY=0.5;exitDx=0;exitDy=0;entryX=0;entryY=0.5;entryDx=0;entryDy=0;" edge="1" parent="1" source="1kwHoDAKHIwVnWZ9qKXR-4" target="1kwHoDAKHIwVnWZ9qKXR-11">
          <mxGeometry relative="1" as="geometry" />
        </mxCell>
        <mxCell id="1kwHoDAKHIwVnWZ9qKXR-4" value="Research Papers" style="rounded=0;whiteSpace=wrap;html=1;" vertex="1" parent="1">
          <mxGeometry x="220" y="360" width="120" height="60" as="geometry" />
        </mxCell>
        <mxCell id="1kwHoDAKHIwVnWZ9qKXR-12" style="edgeStyle=orthogonalEdgeStyle;rounded=0;orthogonalLoop=1;jettySize=auto;html=1;exitX=1;exitY=0.5;exitDx=0;exitDy=0;entryX=0;entryY=0.5;entryDx=0;entryDy=0;" edge="1" parent="1" source="1kwHoDAKHIwVnWZ9qKXR-6" target="1kwHoDAKHIwVnWZ9qKXR-11">
          <mxGeometry relative="1" as="geometry" />
        </mxCell>
        <mxCell id="1kwHoDAKHIwVnWZ9qKXR-6" value="Real Life Project" style="rounded=0;whiteSpace=wrap;html=1;" vertex="1" parent="1">
          <mxGeometry x="220" y="470" width="120" height="60" as="geometry" />
        </mxCell>
        <mxCell id="1kwHoDAKHIwVnWZ9qKXR-27" style="edgeStyle=orthogonalEdgeStyle;rounded=0;orthogonalLoop=1;jettySize=auto;html=1;exitX=1;exitY=0.5;exitDx=0;exitDy=0;entryX=0;entryY=0.5;entryDx=0;entryDy=0;" edge="1" parent="1" source="1kwHoDAKHIwVnWZ9qKXR-8" target="1kwHoDAKHIwVnWZ9qKXR-26">
          <mxGeometry relative="1" as="geometry" />
        </mxCell>
        <mxCell id="1kwHoDAKHIwVnWZ9qKXR-8" value="Introduction" style="rounded=0;whiteSpace=wrap;html=1;" vertex="1" parent="1">
          <mxGeometry x="420" y="300" width="120" height="60" as="geometry" />
        </mxCell>
        <mxCell id="1kwHoDAKHIwVnWZ9qKXR-21" style="edgeStyle=orthogonalEdgeStyle;rounded=0;orthogonalLoop=1;jettySize=auto;html=1;exitX=1;exitY=0.5;exitDx=0;exitDy=0;entryX=0;entryY=0.5;entryDx=0;entryDy=0;" edge="1" parent="1" source="1kwHoDAKHIwVnWZ9qKXR-11" target="1kwHoDAKHIwVnWZ9qKXR-19">
          <mxGeometry relative="1" as="geometry">
            <Array as="points">
              <mxPoint x="750" y="500" />
              <mxPoint x="750" y="360" />
            </Array>
          </mxGeometry>
        </mxCell>
        <mxCell id="1kwHoDAKHIwVnWZ9qKXR-23" style="edgeStyle=orthogonalEdgeStyle;rounded=0;orthogonalLoop=1;jettySize=auto;html=1;entryX=0;entryY=0.5;entryDx=0;entryDy=0;" edge="1" parent="1" source="1kwHoDAKHIwVnWZ9qKXR-11" target="1kwHoDAKHIwVnWZ9qKXR-22">
          <mxGeometry relative="1" as="geometry" />
        </mxCell>
        <mxCell id="1kwHoDAKHIwVnWZ9qKXR-11" value="System Description" style="rounded=0;whiteSpace=wrap;html=1;" vertex="1" parent="1">
          <mxGeometry x="420" y="470" width="120" height="60" as="geometry" />
        </mxCell>
        <mxCell id="1kwHoDAKHIwVnWZ9qKXR-18" style="edgeStyle=orthogonalEdgeStyle;rounded=0;orthogonalLoop=1;jettySize=auto;html=1;exitX=1;exitY=0.5;exitDx=0;exitDy=0;entryX=0;entryY=0.5;entryDx=0;entryDy=0;" edge="1" parent="1" source="1kwHoDAKHIwVnWZ9qKXR-15" target="1kwHoDAKHIwVnWZ9qKXR-17">
          <mxGeometry relative="1" as="geometry" />
        </mxCell>
        <mxCell id="1kwHoDAKHIwVnWZ9qKXR-15" value="System Purpose" style="rounded=0;whiteSpace=wrap;html=1;" vertex="1" parent="1">
          <mxGeometry x="420" y="190" width="120" height="60" as="geometry" />
        </mxCell>
        <mxCell id="1kwHoDAKHIwVnWZ9qKXR-20" style="edgeStyle=orthogonalEdgeStyle;rounded=0;orthogonalLoop=1;jettySize=auto;html=1;exitX=1;exitY=0.5;exitDx=0;exitDy=0;entryX=0;entryY=0.5;entryDx=0;entryDy=0;" edge="1" parent="1" source="1kwHoDAKHIwVnWZ9qKXR-17" target="1kwHoDAKHIwVnWZ9qKXR-19">
          <mxGeometry relative="1" as="geometry" />
        </mxCell>
        <mxCell id="1kwHoDAKHIwVnWZ9qKXR-25" style="edgeStyle=orthogonalEdgeStyle;rounded=0;orthogonalLoop=1;jettySize=auto;html=1;exitX=1;exitY=0.5;exitDx=0;exitDy=0;entryX=0;entryY=0.5;entryDx=0;entryDy=0;" edge="1" parent="1" source="1kwHoDAKHIwVnWZ9qKXR-17" target="1kwHoDAKHIwVnWZ9qKXR-24">
          <mxGeometry relative="1" as="geometry" />
        </mxCell>
        <mxCell id="1kwHoDAKHIwVnWZ9qKXR-17" value="Problem Statement" style="rounded=0;whiteSpace=wrap;html=1;" vertex="1" parent="1">
          <mxGeometry x="640" y="190" width="120" height="60" as="geometry" />
        </mxCell>
        <mxCell id="1kwHoDAKHIwVnWZ9qKXR-30" style="edgeStyle=orthogonalEdgeStyle;rounded=0;orthogonalLoop=1;jettySize=auto;html=1;exitX=1;exitY=0.5;exitDx=0;exitDy=0;" edge="1" parent="1" source="1kwHoDAKHIwVnWZ9qKXR-19">
          <mxGeometry relative="1" as="geometry">
            <mxPoint x="1080" y="360" as="targetPoint" />
          </mxGeometry>
        </mxCell>
        <mxCell id="1kwHoDAKHIwVnWZ9qKXR-19" value="System Context Design" style="rounded=0;whiteSpace=wrap;html=1;" vertex="1" parent="1">
          <mxGeometry x="840" y="330" width="120" height="60" as="geometry" />
        </mxCell>
        <mxCell id="1kwHoDAKHIwVnWZ9qKXR-31" style="edgeStyle=orthogonalEdgeStyle;rounded=0;orthogonalLoop=1;jettySize=auto;html=1;exitX=1;exitY=0.5;exitDx=0;exitDy=0;entryX=0;entryY=0.5;entryDx=0;entryDy=0;" edge="1" parent="1" source="1kwHoDAKHIwVnWZ9qKXR-22" target="1kwHoDAKHIwVnWZ9qKXR-28">
          <mxGeometry relative="1" as="geometry" />
        </mxCell>
        <mxCell id="1kwHoDAKHIwVnWZ9qKXR-22" value="Literature Review" style="rounded=0;whiteSpace=wrap;html=1;" vertex="1" parent="1">
          <mxGeometry x="840" y="470" width="120" height="60" as="geometry" />
        </mxCell>
        <mxCell id="1kwHoDAKHIwVnWZ9qKXR-29" style="edgeStyle=orthogonalEdgeStyle;rounded=0;orthogonalLoop=1;jettySize=auto;html=1;exitX=1;exitY=0.5;exitDx=0;exitDy=0;entryX=0;entryY=0.5;entryDx=0;entryDy=0;" edge="1" parent="1" source="1kwHoDAKHIwVnWZ9qKXR-24" target="1kwHoDAKHIwVnWZ9qKXR-28">
          <mxGeometry relative="1" as="geometry" />
        </mxCell>
        <mxCell id="1kwHoDAKHIwVnWZ9qKXR-24" value="Challenges" style="rounded=0;whiteSpace=wrap;html=1;" vertex="1" parent="1">
          <mxGeometry x="840" y="190" width="120" height="60" as="geometry" />
        </mxCell>
        <mxCell id="1kwHoDAKHIwVnWZ9qKXR-26" value="Projection" style="rounded=0;whiteSpace=wrap;html=1;" vertex="1" parent="1">
          <mxGeometry x="590" y="300" width="120" height="60" as="geometry" />
        </mxCell>
        <mxCell id="1kwHoDAKHIwVnWZ9qKXR-33" style="edgeStyle=orthogonalEdgeStyle;rounded=0;orthogonalLoop=1;jettySize=auto;html=1;exitX=1;exitY=0.5;exitDx=0;exitDy=0;entryX=0;entryY=0.5;entryDx=0;entryDy=0;" edge="1" parent="1" source="1kwHoDAKHIwVnWZ9qKXR-28" target="1kwHoDAKHIwVnWZ9qKXR-32">
          <mxGeometry relative="1" as="geometry" />
        </mxCell>
        <mxCell id="1kwHoDAKHIwVnWZ9qKXR-28" value="Verification" style="rounded=0;whiteSpace=wrap;html=1;" vertex="1" parent="1">
          <mxGeometry x="1080" y="330" width="120" height="60" as="geometry" />
        </mxCell>
        <mxCell id="1kwHoDAKHIwVnWZ9qKXR-32" value="End of Phase One" style="rounded=1;whiteSpace=wrap;html=1;" vertex="1" parent="1">
          <mxGeometry x="1310" y="330" width="120" height="60" as="geometry" />
        </mxCell>
      </root>
    </mxGraphModel>
  </diagram>
</mxfile>
